<svg width="53" height="51" viewBox="0 0 53 51" fill="black" xmlns="http://www.w3.org/2000/svg">
<path d="M1.40625 25.5H51.5938M1.40625 37.5312H51.5938M1.40625 49.5625H51.5938M7.10938 1.4375H45.8906C47.4032 1.4375 48.8538 2.07129 49.9233 3.19944C50.9929 4.32758 51.5938 5.85768 51.5938 7.45312C51.5938 9.04857 50.9929 10.5787 49.9233 11.7068C48.8538 12.835 47.4032 13.4687 45.8906 13.4687H7.10938C5.59681 13.4687 4.1462 12.835 3.07666 11.7068C2.00711 10.5787 1.40625 9.04857 1.40625 7.45312C1.40625 5.85768 2.00711 4.32758 3.07666 3.19944C4.1462 2.07129 5.59681 1.4375 7.10938 1.4375Z" stroke="#F1ECCE" stroke-width="1.5" stroke-linecap="round" stroke-linejoin="round"/>
</svg>
