<svg width="37" height="36" viewBox="0 0 37 36" fill="none" xmlns="http://www.w3.org/2000/svg">
<path d="M22.7242 13.5L22.1907 27M14.8092 27L14.2758 13.5M29.6432 8.685C30.1704 8.763 30.6946 8.8455 31.2187 8.934M29.6432 8.685L27.9967 29.5095C27.9295 30.3573 27.5358 31.1492 26.8944 31.7269C26.253 32.3045 25.4111 32.6252 24.5372 32.625H12.4628C11.5889 32.6252 10.747 32.3045 10.1056 31.7269C9.46419 31.1492 9.07053 30.3573 9.00333 29.5095L7.35683 8.685M29.6432 8.685C27.8639 8.42328 26.0754 8.22464 24.2812 8.0895M7.35683 8.685C6.82958 8.7615 6.30542 8.844 5.78125 8.9325M7.35683 8.685C9.13612 8.42328 10.9246 8.22465 12.7187 8.0895M24.2812 8.0895V6.7155C24.2812 4.9455 22.8783 3.4695 21.0592 3.414C19.3535 3.36096 17.6465 3.36096 15.9408 3.414C14.1217 3.4695 12.7187 4.947 12.7187 6.7155V8.0895M24.2812 8.0895C20.4328 7.80012 16.5672 7.80012 12.7187 8.0895" stroke="#82735C" stroke-width="1.5" stroke-linecap="round" stroke-linejoin="round"/>
</svg>
